<svg width="638" height="486" viewBox="0 0 638 486" fill="none" xmlns="http://www.w3.org/2000/svg">
<path d="M0.478929 284.33C0.692976 268.728 319.662 470.531 319.662 477.804L671 252V475.172C671 476.82 670.188 478.361 668.83 479.294L322.544 717.022C320.813 718.21 318.524 718.19 316.814 716.973L2.55767 493.253C1.25195 492.323 0.471672 490.904 0.459205 489.302C0.317595 471.097 -0.510836 356.475 0.478929 284.33Z" fill="url(#paint0_linear_106_332)"/>
<path d="M319.486 477.937C121.174 355.346 0.144949 288.212 0.144237 283.834C0.143525 279.456 -2.77147 264.862 17.6424 253.186L315.112 70.7588C329.694 63.4617 363.232 59.0835 385.105 73.6777L628.621 213.782C656.327 229.836 672.367 244.43 670.908 251.727C670.908 251.727 326.663 482.373 319.486 477.937Z" fill="url(#paint1_linear_106_332)"/>
<defs>
<linearGradient id="paint0_linear_106_332" x1="160.07" y1="284.33" x2="160.07" y2="749.831" gradientUnits="userSpaceOnUse">
<stop stop-color="#22B5E3"/>
<stop offset="1" stop-color="#0D61C4"/>
</linearGradient>
<linearGradient id="paint1_linear_106_332" x1="503.218" y1="140.811" x2="186.504" y2="482.047" gradientUnits="userSpaceOnUse">
<stop stop-color="#1ECFE1"/>
<stop offset="1" stop-color="#2397D1"/>
</linearGradient>
</defs>
</svg>
