<svg width="283" height="69" viewBox="0 0 283 69" fill="none" xmlns="http://www.w3.org/2000/svg">
<path d="M34.5498 44.6302L14.1673 33.1136C14.1673 33.1136 14.4653 20.1341 14.5329 15.1989C14.6243 8.52659 34.5498 26.8983 34.5498 27.3553V44.6302Z" fill="url(#paint0_linear_74_2156)"/>
<path d="M34.5496 27.3548C22.119 19.677 14.5327 15.4726 14.5327 15.1984C14.5326 14.9241 14.3499 14.0101 15.6295 13.2789L34.2754 1.85372C35.1894 1.39671 37.2916 1.12251 38.6627 2.03652L53.9267 10.8111C55.6634 11.8165 56.6688 12.7305 56.5774 13.1875C56.5774 13.1875 34.9994 27.6326 34.5496 27.3548Z" fill="url(#paint1_linear_74_2156)"/>
<path d="M32.539 60.2598C36.5606 57.792 34.709 52.1564 34.5499 44.5387L14.1673 33.1135C12.2689 35.1873 6.71187 37.6187 2.55931 40.5171C0.856347 41.7056 6.26101e-05 43.0498 6.40799e-05 45.1785V54.0445C-0.00522501 55.4973 0.316549 56.0525 1.09688 56.8779L17.732 66.5665C19.5717 67.4026 20.5922 67.4162 22.3934 66.5665L32.539 60.2598Z" fill="url(#paint2_linear_74_2156)"/>
<path d="M35.8293 41.1566C34.7627 41.7267 34.7325 43.1675 34.5497 44.5385V27.355C34.5497 26.9894 56.5775 13.1877 56.5775 13.1877V24.9785C56.6528 27.2868 55.6901 28.2471 53.8354 29.9142L35.8293 41.1566Z" fill="url(#paint3_linear_74_2156)"/>
<path d="M98.9131 29.3524C98.9357 31.1419 98.5457 32.79 97.7431 34.2965C96.9401 35.7738 95.6936 36.9778 94.0035 37.9087C92.3134 38.8396 90.2069 39.321 87.6839 39.3528L83.0193 39.4115L83.1591 50.501L75.6341 50.5958L75.2447 19.7038L87.4343 19.5502C89.8986 19.5191 91.9869 19.9183 93.6992 20.7476C95.4115 21.5769 96.7024 22.7343 97.5721 24.2198C98.4417 25.7053 98.8887 27.4161 98.9131 29.3524ZM87.0364 33.3752C88.4739 33.3571 89.5405 33.0062 90.2361 32.3226C90.9316 31.6389 91.2717 30.681 91.2561 29.4489C91.2406 28.2167 90.8765 27.2677 90.1639 26.6018C89.4513 25.9359 88.3763 25.6121 86.9388 25.6302L82.8462 25.6818L82.9439 33.4268L87.0364 33.3752ZM106.537 23.0945C105.217 23.1111 104.127 22.7434 103.267 21.9914C102.435 21.2096 102.012 20.2467 101.998 19.1026C101.983 17.9291 102.382 16.9558 103.193 16.1826C104.034 15.3798 105.115 14.9701 106.435 14.9534C107.726 14.9372 108.787 15.3199 109.618 16.1017C110.479 16.8537 110.916 17.8165 110.931 18.99C110.945 20.1341 110.532 21.1076 109.691 21.9104C108.88 22.6835 107.828 23.0782 106.537 23.0945ZM110.31 25.5997L110.62 50.1549L103.095 50.2497L102.785 25.6945L110.31 25.5997ZM130.595 49.9031L125.8 43.1416L121.926 50.0124L113.785 50.115L121.724 37.4713L113.255 25.5626L121.704 25.4561L126.498 32.1736L130.373 25.3468L138.514 25.2442L130.441 37.7135L139.044 49.7966L130.595 49.9031ZM164.931 36.7946C164.94 37.4987 164.905 38.2327 164.826 38.9966L147.796 39.2113C147.933 40.7353 148.432 41.9027 149.293 42.7134C150.183 43.4944 151.259 43.877 152.52 43.8611C154.398 43.8374 155.693 43.0288 156.407 41.4354L164.416 41.3344C164.025 42.9532 163.296 44.4148 162.226 45.7193C161.187 47.0234 159.864 48.0524 158.26 48.8062C156.656 49.5599 154.856 49.9494 152.861 49.9745C150.456 50.0049 148.308 49.5184 146.417 48.5153C144.527 47.5122 143.041 46.0638 141.961 44.1702C140.881 42.2766 140.325 40.0536 140.293 37.5013C140.26 34.949 140.746 32.7129 141.748 30.793C142.781 28.8728 144.229 27.3875 146.094 26.337C147.958 25.2865 150.108 24.746 152.543 24.7153C154.919 24.6853 157.038 25.1574 158.899 26.1316C160.759 27.1058 162.215 28.5105 163.265 30.3458C164.344 32.1807 164.9 34.3303 164.931 36.7946ZM157.205 34.9115C157.188 33.6206 156.735 32.5994 155.846 31.8477C154.956 31.096 153.851 30.7285 152.531 30.7452C151.269 30.7611 150.203 31.1413 149.332 31.8858C148.491 32.6299 147.976 33.6781 147.788 35.0302L157.205 34.9115ZM176.175 16.7592L176.585 49.3234L169.06 49.4183L168.65 16.854L176.175 16.7592ZM180.387 36.9519C180.355 34.4289 180.797 32.2081 181.711 30.2893C182.656 28.3702 183.943 26.8869 185.572 25.8394C187.202 24.7919 189.029 24.2554 191.054 24.2299C192.785 24.208 194.3 24.541 195.6 25.2289C196.929 25.9163 197.952 26.8277 198.671 27.9629L198.627 24.4865L206.152 24.3917L206.462 48.9468L198.937 49.0417L198.893 45.5652C198.174 46.7186 197.159 47.6557 195.847 48.3764C194.565 49.0968 193.059 49.4679 191.328 49.4897C189.333 49.5148 187.508 49.0244 185.852 48.0183C184.196 46.9828 182.872 45.5178 181.879 43.6231C180.916 41.6986 180.419 39.4749 180.387 36.9519ZM198.782 36.7641C198.758 34.8865 198.212 33.4116 197.142 32.3395C196.101 31.2669 194.833 30.7401 193.337 30.759C191.84 30.7778 190.571 31.3367 189.529 32.4354C188.515 33.5045 188.02 34.9778 188.044 36.8554C188.068 38.733 188.6 40.2227 189.641 41.3246C190.711 42.3968 191.994 42.9234 193.49 42.9045C194.986 42.8857 196.241 42.327 197.254 41.2286C198.296 40.1298 198.806 38.6417 198.782 36.7641ZM225.511 42.3249L225.591 48.7057L221.763 48.754C219.035 48.7884 216.899 48.1551 215.357 46.8541C213.815 45.5239 213.024 43.3479 212.986 40.3261L212.863 30.5569L209.871 30.5946L209.792 24.3458L212.784 24.3081L212.709 18.3233L220.234 18.2284L220.309 24.2132L225.238 24.1511L225.317 30.3999L220.388 30.462L220.512 40.3193C220.522 41.0527 220.704 41.5786 221.06 41.8968C221.416 42.2151 222.005 42.3691 222.827 42.3587L225.511 42.3249ZM252.77 35.6875C252.779 36.3916 252.744 37.1256 252.666 37.8894L235.636 38.1041C235.772 39.6281 236.271 40.7955 237.132 41.6062C238.022 42.3873 239.098 42.7698 240.36 42.7539C242.237 42.7302 243.533 41.9217 244.246 40.3282L252.255 40.2273C251.865 41.846 251.135 43.3076 250.066 44.6121C249.026 45.9163 247.704 46.9452 246.1 47.699C244.495 48.4528 242.696 48.8422 240.701 48.8674C238.295 48.8977 236.147 48.4113 234.257 47.4082C232.366 46.405 230.881 44.9566 229.801 43.063C228.72 41.1694 228.164 38.9465 228.132 36.3941C228.1 33.8418 228.585 31.6057 229.588 29.6859C230.62 27.7656 232.068 26.2803 233.933 25.2298C235.798 24.1794 237.947 23.6388 240.382 23.6081C242.759 23.5781 244.877 24.0503 246.738 25.0244C248.599 25.9986 250.054 27.4033 251.104 29.2386C252.184 31.0735 252.739 33.2232 252.77 35.6875ZM245.044 33.8043C245.028 32.5135 244.575 31.4922 243.685 30.7405C242.796 29.9889 241.691 29.6213 240.37 29.638C239.109 29.6539 238.043 30.0341 237.172 30.7786C236.33 31.5228 235.815 32.5709 235.627 33.923L245.044 33.8043ZM279.887 35.3457C279.896 36.0498 279.861 36.7838 279.783 37.5476L262.753 37.7623C262.889 39.2864 263.388 40.4537 264.249 41.2645C265.139 42.0455 266.215 42.428 267.476 42.4121C269.354 42.3884 270.65 41.5799 271.363 39.9864L279.372 39.8855C278.982 41.5042 278.252 42.9658 277.183 44.2703C276.143 45.5745 274.821 46.6034 273.216 47.3572C271.612 48.111 269.813 48.5004 267.818 48.5256C265.412 48.5559 263.264 48.0695 261.373 47.0664C259.483 46.0632 257.997 44.6149 256.917 42.7213C255.837 40.8277 255.281 38.6047 255.249 36.0524C255.217 33.5 255.702 31.2639 256.705 29.3441C257.737 27.4239 259.185 25.9385 261.05 24.888C262.914 23.8376 265.064 23.297 267.499 23.2663C269.876 23.2364 271.994 23.7085 273.855 24.6826C275.716 25.6568 277.171 27.0615 278.221 28.8968C279.301 30.7318 279.856 32.8814 279.887 35.3457ZM272.161 33.4625C272.145 32.1717 271.692 31.1504 270.802 30.3987C269.912 29.6471 268.807 29.2796 267.487 29.2962C266.226 29.3121 265.16 29.6923 264.289 30.4368C263.447 31.181 262.932 32.2291 262.744 33.5812L272.161 33.4625Z" fill="#3B82F6"/>
<defs>
<linearGradient id="paint0_linear_74_2156" x1="24.5413" y1="15.1989" x2="24.5413" y2="44.4474" gradientUnits="userSpaceOnUse">
<stop stop-color="#22B5E3"/>
<stop offset="1" stop-color="#0D61C4"/>
</linearGradient>
<linearGradient id="paint1_linear_74_2156" x1="46.0662" y1="6.24099" x2="26.2321" y2="27.629" gradientUnits="userSpaceOnUse">
<stop stop-color="#1ECFE1"/>
<stop offset="1" stop-color="#2397D1"/>
</linearGradient>
<linearGradient id="paint2_linear_74_2156" x1="17.4473" y1="33.1135" x2="17.4473" y2="67.1987" gradientUnits="userSpaceOnUse">
<stop stop-color="#094EBD"/>
<stop offset="1" stop-color="#3B82F6"/>
</linearGradient>
<linearGradient id="paint3_linear_74_2156" x1="45.3828" y1="13.1877" x2="45.3828" y2="44.6299" gradientUnits="userSpaceOnUse">
<stop stop-color="#22B5E3"/>
<stop offset="1" stop-color="#0D61C4"/>
</linearGradient>
</defs>
</svg>
