<?xml version="1.0" encoding="UTF-8"?>
<svg version="1.1" xmlns="http://www.w3.org/2000/svg" width="246" height="285">
<path d="M0 0 C3.02873739 1.54348135 5.89543845 3.22927038 8.77832031 5.03027344 C10.37824829 5.97773438 10.37824829 5.97773438 12.01049805 6.94433594 C14.22903101 8.26047291 16.44023969 9.58903239 18.64404297 10.9296875 C22.7301002 13.40641972 26.86238364 15.79766615 30.99951172 18.18774414 C33.96584416 19.90528724 36.92179312 21.63958696 39.87597656 23.37792969 C44.05453108 25.83263317 48.25127458 28.25213 52.46191406 30.65136719 C53.54013428 31.26947266 54.61835449 31.88757812 55.72924805 32.52441406 C57.77810511 33.69816127 59.83075535 34.86532334 61.88793945 36.02441406 C62.82114014 36.56130859 63.75434082 37.09820312 64.71582031 37.65136719 C65.52664062 38.11212646 66.33746094 38.57288574 67.17285156 39.04760742 C68.52443359 39.9671521 68.52443359 39.9671521 69.90332031 40.90527344 C70.92827606 41.5457386 70.92827606 41.5457386 71.97393799 42.19914246 C75.42694511 44.67996861 77.55886365 46.54691234 78.62561035 50.75361633 C78.89633669 54.26582019 78.9075345 57.69213575 78.82519531 61.21386719 C78.82336243 62.49455582 78.82152954 63.77524445 78.81964111 65.09474182 C78.81340839 67.79785924 78.7804852 70.49883713 78.7265625 73.20141602 C78.65866577 76.64585375 78.64330444 80.08794464 78.64634323 83.53297329 C78.64498636 86.84357889 78.60958375 90.15343349 78.57519531 93.46386719 C78.57074402 94.6911705 78.56629272 95.91847382 78.56170654 97.18296814 C78.35663473 106.48876935 76.61834595 112.78040146 69.90722656 119.42871094 C64.73553663 124.35463221 58.9761303 127.92574423 52.84082031 131.53027344 C51.69229763 132.21879886 50.54469115 132.9088546 49.39794922 133.6003418 C47.04837021 135.01649871 44.69583019 136.42752767 42.34130859 137.83544922 C37.10893137 140.97428902 31.94514155 144.22256451 26.77832031 147.46777344 C24.82130793 148.69176194 22.86427662 149.91572018 20.90722656 151.13964844 C16.68047294 153.78739819 12.46057778 156.44580009 8.24316406 159.10839844 C7.15084473 159.79603271 6.05852539 160.48366699 4.93310547 161.19213867 C2.83816618 162.51113331 0.74528096 163.83339789 -1.34521484 165.15942383 C-2.28800293 165.75231201 -3.23079102 166.3452002 -4.20214844 166.95605469 C-5.0286792 167.47852783 -5.85520996 168.00100098 -6.70678711 168.53930664 C-9.09667969 169.90527344 -9.09667969 169.90527344 -11.82128906 170.90844727 C-14.41215024 171.74001194 -14.41215024 171.74001194 -15.39746094 174.80371094 C-16.53779004 179.97730254 -16.34977594 185.26125474 -16.28417969 190.53027344 C-16.27773437 191.60696289 -16.27128906 192.68365234 -16.26464844 193.79296875 C-16.20375585 200.08583735 -15.90311853 206.29796556 -15.33105469 212.56542969 C-13.36450402 240.58877675 -13.36450402 240.58877675 -21.04589844 249.74902344 C-25.33080059 254.50941222 -30.33271641 257.48823659 -35.84667969 260.65527344 C-37.89579864 261.86461645 -39.94396079 263.07558199 -41.99121094 264.28808594 C-43.0129541 264.88911133 -44.03469727 265.49013672 -45.08740234 266.109375 C-50.4042268 269.2823882 -55.60536732 272.63693796 -60.8046875 275.99804688 C-69.21741303 281.37991237 -75.82239939 285.49611919 -86.09667969 283.90527344 C-94.69867297 280.41616063 -102.6690279 275.31377206 -110.59667969 270.53027344 C-112.95921347 269.11406886 -115.32430405 267.70218637 -117.69042969 266.29199219 C-118.59535156 265.75243645 -118.59535156 265.75243645 -119.51855469 265.20198059 C-127.45859394 260.48199682 -135.49921505 255.93649888 -143.54394531 251.39794922 C-165.80384123 238.7837888 -165.80384123 238.7837888 -168.09667969 231.90527344 C-168.19830528 230.3370881 -168.24503433 228.76502636 -168.2578125 227.19360352 C-168.26742004 226.2386348 -168.27702759 225.28366608 -168.28692627 224.29975891 C-168.29117615 223.26852402 -168.29542603 222.23728912 -168.29980469 221.17480469 C-168.30550476 220.11041672 -168.31120483 219.04602875 -168.31707764 217.9493866 C-168.32652943 215.69405105 -168.33306233 213.43870168 -168.33691406 211.18334961 C-168.34659279 207.74861189 -168.377604 204.3144794 -168.40917969 200.87988281 C-168.41571263 198.68652698 -168.42096196 196.49316688 -168.42480469 194.29980469 C-168.43715149 193.27869095 -168.44949829 192.25757721 -168.46221924 191.20552063 C-168.44076374 184.26556693 -167.7385611 178.63021337 -163.61083984 172.81030273 C-158.95702444 168.39436163 -153.97068994 165.00441394 -148.47167969 161.71777344 C-147.56522705 161.16532959 -146.65877441 160.61288574 -145.72485352 160.04370117 C-138.30756074 155.55295929 -130.78901874 151.23609574 -123.20166016 147.03930664 C-115.10736619 142.70365882 -115.10736619 142.70365882 -108.09667969 136.90527344 C-106.9516529 132.73196435 -106.93579409 128.56921181 -106.91064453 124.27270508 C-106.8932256 122.71525429 -106.87567178 121.15780501 -106.85800171 119.60035706 C-106.85025097 118.78010103 -106.84250023 117.95984501 -106.83451462 117.11473274 C-106.78850086 112.75360888 -106.71171866 108.39298394 -106.63964844 104.03222656 C-106.54909987 98.49101923 -106.46794972 92.9502438 -106.42431641 87.40844727 C-106.38817815 82.92149948 -106.31844214 78.43617331 -106.22624588 73.95004082 C-106.19731154 72.24422886 -106.18063785 70.53816204 -106.17661667 68.83210945 C-106.1361366 55.57174985 -106.1361366 55.57174985 -103.67433167 51.62493896 C-101.89086318 50.04147805 -100.2192233 48.97962169 -98.09667969 47.90527344 C-97.12239014 47.24930176 -96.14810059 46.59333008 -95.14428711 45.91748047 C-94.17338135 45.33853027 -93.20247559 44.75958008 -92.20214844 44.16308594 C-91.09508545 43.49768799 -89.98802246 42.83229004 -88.84741211 42.14672852 C-87.65966868 41.44124229 -86.47192452 40.73575729 -85.28417969 40.03027344 C-83.40249001 38.90230138 -81.52226084 37.77191991 -79.64204407 36.64149475 C-78.3579018 35.8696911 -77.07330184 35.09864846 -75.78825378 34.32835388 C-69.42135509 30.5100508 -63.10064306 26.61896364 -56.78417969 22.71777344 C-48.27362824 17.47171225 -39.75602963 12.23754717 -31.22167969 7.03027344 C-30.25834717 6.44093018 -29.29501465 5.85158691 -28.30249023 5.24438477 C-27.41215088 4.70193115 -26.52181152 4.15947754 -25.60449219 3.60058594 C-24.82734863 3.12637207 -24.05020508 2.6521582 -23.24951172 2.16357422 C-22.53907715 1.74833496 -21.82864258 1.3330957 -21.09667969 0.90527344 C-20.16855469 0.34259766 -20.16855469 0.34259766 -19.22167969 -0.23144531 C-13.3385005 -2.62148686 -5.88067832 -2.0789153 0 0 Z " fill="#1E89D8" transform="translate(168.0966796875,1.0947265625)"/>
</svg>
